<?xml version="1.0" encoding="UTF-8"?>
<svg id="Layer_1" data-name="Layer 1" xmlns="http://www.w3.org/2000/svg" viewBox="0 0 150 214.24">
  <defs>
    <style>
      .cls-1 {
        opacity: .5;
      }

      .cls-2 {
        fill: #fff;
        stroke-width: 0px;
      }
    </style>
  </defs>
  <g class="cls-1">
    <g>
      <path class="cls-2" d="M27.92,80.42l9.71-9.59,9.67,9.78s-2.98,1.49-9.66,1.49-9.72-1.67-9.72-1.67Z"/>
      <polygon class="cls-2" points="24.21 78.92 37.63 65.66 51.41 78.99 54.36 76.81 37.65 60.17 21.22 76.81 24.21 78.92"/>
      <polygon class="cls-2" points="18.25 74.44 37.64 54.97 57.22 74.44 59.74 71.79 42.45 54.59 60.24 36.75 57.59 34.05 37.64 53.6 17.52 34.05 15.05 36.7 32.82 54.59 15.69 71.93 18.25 74.44"/>
      <path class="cls-2" d="M47.92,54.59l14.1,14.13s4.21-6.08,4.21-14.23c0-8.55-3.94-14.23-3.94-14.23l-14.38,14.32Z"/>
      <polygon class="cls-2" points="51.92 29.78 37.64 43.79 23.17 29.78 20.71 31.74 37.64 48.59 54.63 31.65 51.92 29.78"/>
      <path class="cls-2" d="M47.92,27.93l-10.33,10.48-10.5-10.23s3.81-2.23,10.49-2.23,10.34,1.98,10.34,1.98Z"/>
      <path class="cls-2" d="M27.61,54.54l-14.27-14.18s-4.21,6.08-4.21,14.23c0,8.55,3.94,14.23,3.94,14.23l14.55-14.27Z"/>
    </g>
  </g>
  <g class="cls-1">
    <g>
      <path class="cls-2" d="M98.72,174.05l9.71-9.59,9.67,9.78s-2.98,1.49-9.66,1.49-9.72-1.67-9.72-1.67Z"/>
      <polygon class="cls-2" points="95 172.54 108.43 159.28 122.21 172.61 125.16 170.43 108.45 153.79 92.02 170.43 95 172.54"/>
      <polygon class="cls-2" points="89.04 168.07 108.44 148.6 128.02 168.07 130.53 165.41 113.24 148.21 131.03 130.37 128.38 127.67 108.44 147.22 88.31 127.67 85.84 130.33 103.62 148.21 86.48 165.55 89.04 168.07"/>
      <path class="cls-2" d="M118.72,148.21l14.1,14.13s4.21-6.08,4.21-14.23c0-8.55-3.94-14.23-3.94-14.23l-14.38,14.32Z"/>
      <polygon class="cls-2" points="122.72 123.4 108.44 137.41 93.97 123.4 91.51 125.36 108.44 142.22 125.43 125.27 122.72 123.4"/>
      <path class="cls-2" d="M118.72,121.56l-10.33,10.48-10.5-10.23s3.81-2.23,10.49-2.23,10.34,1.98,10.34,1.98Z"/>
      <path class="cls-2" d="M98.4,148.17l-14.27-14.18s-4.21,6.08-4.21,14.23c0,8.55,3.94,14.23,3.94,14.23l14.55-14.27Z"/>
    </g>
  </g>
</svg>
