<?xml version="1.0" encoding="UTF-8"?>
<svg id="Layer_1" data-name="Layer 1" xmlns="http://www.w3.org/2000/svg" version="1.1" viewBox="0 0 800 800">
  <defs>
    <style>
      .cls-1 {
        fill: #212121;
        stroke-width: 0px;
      }
    </style>
  </defs>
  <g id="_-Product-Icons" data-name="ðŸ”-Product-Icons">
    <g id="ic_fluent_people_community_28_filled" data-name="ic fluent people community 28 filled">
      <path id="_-Color" data-name="ðŸŽ¨-Color" class="cls-1" d="M525,530.9c32.2,0,58.3,26.1,58.3,58.3v66.7l-.3,3.6c-10.4,70.9-74,105-180.8,105s-171.1-33.7-185.1-103.7l-.5-4.9v-66.7c0-32.2,26.1-58.3,58.3-58.3h250ZM541.5,330.9h200.2c32.2,0,58.3,26.1,58.3,58.3v66.7l-.3,3.6c-10.4,70.9-74,105-180.8,105h-5.6c-10.3-36.8-42.9-64.2-82.3-66.8l-6-.2h-30.7c34-27.5,55.7-69.5,55.7-116.7s-3-34.4-8.5-50ZM58.3,330.9h200.2c-5.5,15.6-8.5,32.5-8.5,50,0,44.4,19.3,84.2,49.9,111.7l5.9,5h-30.7c-42.1,0-77.5,28.3-88.3,67h-1.1c-106.4,0-171.1-33.7-185.1-103.8L0,455.9v-66.7C0,357,26.1,330.9,58.3,330.9ZM400,264.3c64.4,0,116.7,52.2,116.7,116.7s-52.2,116.7-116.7,116.7-116.7-52.2-116.7-116.7,52.2-116.7,116.7-116.7ZM616.7,64.3c64.4,0,116.7,52.2,116.7,116.7s-52.2,116.7-116.7,116.7-116.7-52.2-116.7-116.7,52.2-116.7,116.7-116.7ZM183.3,64.3c64.4,0,116.7,52.2,116.7,116.7s-52.2,116.7-116.7,116.7-116.7-52.2-116.7-116.7,52.2-116.7,116.7-116.7Z"/>
    </g>
  </g>
</svg>