<?xml version="1.0" encoding="UTF-8"?>
<svg id="Layer_1" data-name="Layer 1" xmlns="http://www.w3.org/2000/svg" version="1.1" viewBox="0 0 800 800">
  <defs>
    <style>
      .cls-1 {
        fill: #212121;
        stroke-width: 0px;
      }
    </style>
  </defs>
  <path class="cls-1" d="M800,400c0,115-48.5,218.7-126.3,291.7l-73-100.5,74.1-227.9,118.2-38.4c4.6,24.3,7,49.4,7,75.1Z"/>
  <path class="cls-1" d="M519.8,650l73,100.5c-57.2,31.5-122.9,49.5-192.9,49.5s-135.7-17.9-192.9-49.5l73-100.5h239.7Z"/>
  <path class="cls-1" d="M0,400c0,115,48.6,218.7,126.3,291.7l73-100.5-74.1-227.9L7,324.9c-4.6,24.3-7,49.4-7,75.1Z"/>
  <path class="cls-1" d="M156.1,268.2l-118.2-38.4C95.1,108.4,211.6,20.4,350,3.1v124.2l-193.9,140.9Z"/>
  <path class="cls-1" d="M450,127.3V3.1c138.4,17.3,254.9,105.3,312.1,226.7l-118.2,38.4-193.9-140.9Z"/>
  <path class="cls-1" d="M223.7,342.7l176.3-128.1,176.3,128.1-67.4,207.3h-218l-67.4-207.3Z"/>
</svg>