<?xml version="1.0" encoding="UTF-8"?>
<svg id="Layer_2" data-name="Layer 2" xmlns="http://www.w3.org/2000/svg" viewBox="0 0 585.33 335.82">
  <defs>
    <style>
      .cls-1 {
        fill: #fff;
        stroke-width: 0px;
      }
    </style>
  </defs>
  <g id="Layer_7" data-name="Layer 7">
    <g>
      <circle class="cls-1" cx="292.67" cy="85.37" r="85.37"/>
      <path class="cls-1" d="M436.5,297.02v24.15c0,8.09-6.56,14.65-14.65,14.65H163.48c-8.09,0-14.65-6.56-14.65-14.65v-24.15c0-45.64,20.44-104.24,80.15-115.13,19.2,14.3,37.08,20.3,63.69,20.3s46.9-6.11,63.45-20.04c61.99,11.83,80.39,72.85,80.39,114.87Z"/>
      <circle class="cls-1" cx="103.65" cy="155.36" r="61.52"/>
      <path class="cls-1" d="M136.03,321.17c0,5.38,1.56,10.41,4.25,14.65H10.56c-5.83,0-10.56-4.73-10.56-10.56v-17.4c0-32.89,14.73-75.11,57.76-82.96,13.83,10.3,26.72,14.63,45.89,14.63s33.8-4.4,45.72-14.44c1,.19,1.99.4,2.96.63-10.55,20.62-16.3,45.66-16.3,71.3v24.16Z"/>
      <circle class="cls-1" cx="481.68" cy="155.36" r="61.52"/>
      <path class="cls-1" d="M449.3,321.17c0,5.38-1.56,10.41-4.25,14.65h129.72c5.83,0,10.56-4.73,10.56-10.56v-17.4c0-32.89-14.73-75.11-57.76-82.96-13.83,10.3-26.72,14.63-45.89,14.63s-33.8-4.4-45.72-14.44c-1,.19-1.99.4-2.96.63,10.55,20.62,16.3,45.66,16.3,71.3v24.16Z"/>
    </g>
  </g>
</svg>